<?xml version="1.0" encoding="UTF-8" standalone="no"?>
<!-- Created with Inkscape (http://www.inkscape.org/) -->

<svg
   width="24"
   height="24"
   viewBox="0 0 6.3499999 6.35"
   version="1.1"
   id="svg1"
   sodipodi:docname="InnterComponents.svg"
   inkscape:version="1.4.2 (f4327f4, 2025-05-13)"
   xml:space="preserve"
   inkscape:export-filename="InnterComponents.svg"
   inkscape:export-xdpi="96"
   inkscape:export-ydpi="96"
   xmlns:inkscape="http://www.inkscape.org/namespaces/inkscape"
   xmlns:sodipodi="http://sodipodi.sourceforge.net/DTD/sodipodi-0.dtd"
   xmlns="http://www.w3.org/2000/svg"
   xmlns:svg="http://www.w3.org/2000/svg"><sodipodi:namedview
     id="namedview1"
     pagecolor="#505050"
     bordercolor="#eeeeee"
     borderopacity="1"
     inkscape:showpageshadow="0"
     inkscape:pageopacity="0"
     inkscape:pagecheckerboard="0"
     inkscape:deskcolor="#505050"
     inkscape:document-units="mm"
     showgrid="true"
     inkscape:zoom="64"
     inkscape:cx="13.773437"
     inkscape:cy="12.164062"
     inkscape:window-width="2560"
     inkscape:window-height="1529"
     inkscape:window-x="-8"
     inkscape:window-y="-8"
     inkscape:window-maximized="1"
     inkscape:current-layer="layer1"><inkscape:grid
       id="grid1"
       units="px"
       originx="0"
       originy="0"
       spacingx="0.26458333"
       spacingy="0.26458333"
       empcolor="#0099e5"
       empopacity="0.30196078"
       color="#0099e5"
       opacity="0.14901961"
       empspacing="6"
       enabled="true"
       visible="true" /></sodipodi:namedview><defs
     id="defs1" /><g
     inkscape:label="Layer 1"
     inkscape:groupmode="layer"
     id="layer1"><path
       id="rect1"
       style="fill:none;stroke:#ffffff;stroke-width:0.529167;stroke-linecap:round;stroke-linejoin:round"
       d="m 1.3229166,0.79374999 h 3.7041666 c 0.2931583,0 0.5291666,0.23600831 0.5291666,0.52916661 v 3.7041666 c 0,0.2931583 -0.2360083,0.5291666 -0.5291666,0.5291666 H 1.3229166 c -0.2931583,0 -0.52916661,-0.2360083 -0.52916661,-0.5291666 V 1.3229166 c 0,-0.2931583 0.23600831,-0.52916661 0.52916661,-0.52916661 z" /><path
       id="rect1-1"
       style="fill:none;stroke:#ffffff;stroke-width:0.529167;stroke-linecap:round;stroke-linejoin:round"
       d="M 1.9276324,2.9840184 2.9840175,1.9276325 c 0.1036473,-0.1036473 0.2705308,-0.1036474 0.3741782,0 l 1.0563866,1.0563857 c 0.1036474,0.1036473 0.1036474,0.2705308 10e-8,0.3741782 L 3.3581973,4.4145822 C 3.25455,4.5182296 3.0876665,4.5182297 2.9840191,4.4145824 L 1.9276326,3.3581966 C 1.8239852,3.2545492 1.8239851,3.0876658 1.9276324,2.9840184 Z" /><path
       d="m 12,14 h 0.01"
       id="path5-4"
       style="fill:none;stroke:#ffffff;stroke-width:2;stroke-linecap:round;stroke-linejoin:round;stroke-opacity:1"
       transform="matrix(0.26458333,0,0,0.26458333,3.9999999e-8,-0.52916661)" /></g></svg>
